HIERARCHY
ROOT root
{
	OFFSET 0.000000 0.000000 0.000000
	CHANNELS 6 Xposition Yposition Zposition Zrotation Yrotation Xrotation
	JOINT lhip
	{
		OFFSET 0.058581 -0.082280 -0.017664
		CHANNELS 3 Zrotation Yrotation Xrotation
		JOINT lknee
		{
			OFFSET 0.043451 -0.386469 0.008037
			CHANNELS 3 Zrotation Yrotation Xrotation
			JOINT lankle
			{
				OFFSET -0.014790 -0.426874 -0.037428
				CHANNELS 3 Zrotation Yrotation Xrotation
				JOINT ltoe
				{
					OFFSET 0.041054 -0.060286 0.122042
					CHANNELS 3 Zrotation Yrotation Xrotation
					End Site
					{
						OFFSET 0.000000 0.000000 0.000000
					}
				}
			}
		}
	}
	JOINT rhip
	{
		OFFSET -0.060310 -0.090513 -0.013543
		CHANNELS 3 Zrotation Yrotation Xrotation
		JOINT rknee
		{
			OFFSET -0.043257 -0.383688 -0.004843
			CHANNELS 3 Zrotation Yrotation Xrotation
			JOINT rankle
			{
				OFFSET 0.019056 -0.420046 -0.034562
				CHANNELS 3 Zrotation Yrotation Xrotation
				JOINT rtoe
				{
					OFFSET -0.034840 -0.062106 0.130323
					CHANNELS 3 Zrotation Yrotation Xrotation
					End Site
					{
						OFFSET 0.000000 0.000000 0.000000
					}
				}
			}
		}
	}
	JOINT lowerback
	{
		OFFSET 0.004439 0.124404 -0.038385
		CHANNELS 3 Zrotation Yrotation Xrotation
		JOINT upperback
		{
			OFFSET 0.004488 0.137956 0.026820
			CHANNELS 3 Zrotation Yrotation Xrotation
			JOINT chest
			{
				OFFSET -0.002265 0.056032 0.002855
				CHANNELS 3 Zrotation Yrotation Xrotation
				JOINT lowerneck
				{
					OFFSET -0.013390 0.211636 -0.033468
					CHANNELS 3 Zrotation Yrotation Xrotation
					JOINT upperneck
					{
						OFFSET 0.010113 0.088937 0.050410
						CHANNELS 3 Zrotation Yrotation Xrotation
						End Site
						{
							OFFSET 0.000000 0.000000 0.000000
						}
					}
				}
				JOINT lclavicle
				{
					OFFSET 0.071702 0.114000 -0.018898
					CHANNELS 3 Zrotation Yrotation Xrotation
					JOINT lshoulder
					{
						OFFSET 0.122921 0.045205 -0.019046
						CHANNELS 3 Zrotation Yrotation Xrotation
						JOINT lelbow
						{
							OFFSET 0.255332 -0.015649 -0.022946
							CHANNELS 3 Zrotation Yrotation Xrotation
							JOINT lwrist
							{
								OFFSET 0.265709 0.012698 -0.007375
								CHANNELS 3 Zrotation Yrotation Xrotation
								End Site
								{
									OFFSET 0.000000 0.000000 0.000000
								}
							}
						}
					}
				}
				JOINT rclavicle
				{
					OFFSET -0.082954 0.112472 -0.023707
					CHANNELS 3 Zrotation Yrotation Xrotation
					JOINT rshoulder
					{
						OFFSET -0.113228 0.046853 -0.008472
						CHANNELS 3 Zrotation Yrotation Xrotation
						JOINT relbow
						{
							OFFSET -0.260127 -0.014369 -0.031269
							CHANNELS 3 Zrotation Yrotation Xrotation
							JOINT rwrist
							{
								OFFSET -0.269108 0.006794 -0.006027
								CHANNELS 3 Zrotation Yrotation Xrotation
								End Site
								{
									OFFSET 0.000000 0.000000 0.000000
								}
							}
						}
					}
				}
			}
		}
	}
}
MOTION
Frames: 12
Frame Time: 0.033333
2.071170 0.232804 0.976555 -73.718842 3.604664 86.375101 3.725607 -0.103780 8.113817 -4.387650 -15.068171 9.755372 3.569257 8.681606 -23.627812 0.000000 -0.000000 0.000000 -2.619928 -3.328131 -13.820725 2.645457 -4.253373 3.761242 6.180182 -6.417075 8.058143 0.000000 -0.000000 0.000000 -0.834761 2.554791 5.510200 1.524167 -0.809877 6.913343 1.486846 -0.965963 1.327008 1.191504 -0.504362 0.868042 5.622319 -1.434343 -10.866717 -23.860862 -3.267731 7.438470 -56.663619 -6.034988 9.036052 11.062355 -25.358308 7.033339 6.344232 -4.172055 -2.826626 22.721057 1.625113 3.823814 59.853738 1.176811 9.434320 -22.035004 33.924909 -5.231714 0.947043 4.023255 -6.882670 
2.071104 0.232517 0.976258 -74.277778 3.584013 85.932728 3.559095 -0.103168 8.697669 -4.253011 -14.811130 9.744962 3.457061 8.831265 -23.867767 0.000000 -0.000000 0.000000 -2.691086 -3.291062 -13.435830 2.816615 -4.249533 3.769007 6.170464 -5.954821 8.169855 0.000000 -0.000000 0.000000 -0.599158 2.177621 6.386445 1.190615 -1.304232 7.148868 1.198221 -1.093570 0.677428 1.456349 -2.618174 -0.262959 5.994851 -3.120556 -11.076045 -23.885967 -3.479723 7.336780 -56.993959 -6.032198 9.295565 11.210451 -26.834010 6.735282 5.917522 -4.933639 -4.660684 22.695547 2.725281 4.015564 60.143756 1.451811 9.524819 -22.058364 33.364849 -5.281004 0.850644 4.124515 -6.237036 
2.071207 0.231878 0.976198 -74.759170 3.587093 85.906988 3.438883 -0.005924 8.812851 -4.145365 -14.391272 9.857362 3.447864 8.774529 -24.295608 0.000000 -0.000000 0.000000 -2.843721 -3.085500 -13.433511 2.992937 -4.206244 3.781196 6.429359 -5.447289 8.387796 0.000000 -0.000000 0.000000 -0.503648 1.838019 6.629900 1.153420 -1.774521 7.166843 1.023729 -1.191486 0.448655 1.790258 -4.861562 -0.711144 6.414520 -4.948978 -11.301727 -23.958943 -4.397924 7.053259 -57.771723 -6.943019 9.992954 11.451497 -25.811713 6.597059 6.061629 -5.772862 -5.141354 22.532710 3.676402 4.165452 60.434417 1.637851 9.593336 -22.122783 32.480399 -5.238532 0.677380 4.184457 -5.724379 
2.070144 0.231418 0.975864 -75.397927 3.703616 85.980263 3.591420 0.120211 9.016095 -4.169949 -14.247489 9.589995 3.430092 8.806506 -24.316718 0.000000 -0.000000 0.000000 -2.682194 -2.722647 -13.533430 2.954537 -4.083757 3.759917 6.689997 -5.258058 8.632547 0.000000 -0.000000 0.000000 -0.638259 1.495211 6.687735 1.371646 -2.109620 7.124900 1.171004 -1.513452 0.426826 1.886089 -6.470778 -1.769991 6.791194 -6.316363 -11.905388 -24.237064 -5.303676 7.278247 -58.427668 -8.154314 10.774882 11.441842 -26.326430 7.043374 6.377855 -6.265060 -5.575277 22.453742 4.237812 3.904731 60.534282 1.540547 9.753969 -21.599502 31.207802 -4.796821 0.277746 4.037862 -5.770562 
2.069687 0.231279 0.975898 -75.640328 3.728677 85.997420 3.608019 0.103726 9.166516 -4.154821 -14.158024 9.330152 3.437306 8.930683 -24.201008 0.000000 -0.000000 0.000000 -2.594287 -2.576286 -13.566787 2.910016 -4.041587 3.760068 6.683515 -5.219498 8.638264 0.000000 -0.000000 0.000000 -0.665256 1.366146 6.784226 1.421106 -2.215254 7.078291 1.223943 -1.592579 0.326090 1.858306 -6.730260 -1.948546 6.898456 -6.506857 -12.037685 -24.315582 -5.566504 7.382715 -58.543407 -8.406830 10.996109 11.455990 -26.685881 7.061710 6.361131 -6.309553 -5.843152 22.518258 4.408741 3.921066 60.589826 1.448738 9.771485 -21.543143 30.740132 -4.768621 0.287821 4.004375 -5.770950 
2.068850 0.230866 0.976019 -76.190574 3.666643 85.940278 3.606859 0.326217 9.608350 -4.148474 -13.901976 8.792620 3.339763 8.814606 -23.836208 0.000000 -0.000000 0.000000 -2.531839 -2.484057 -13.612583 2.860607 -4.009363 3.823059 6.803818 -4.905293 8.970414 0.000000 -0.000000 0.000000 -0.801793 1.227449 6.980022 1.473549 -2.380468 7.186073 1.356023 -1.715063 0.104752 1.769261 -6.823773 -2.264671 7.068688 -6.669005 -12.174007 -24.377696 -6.308747 7.613662 -58.634165 -8.978105 11.427704 11.354532 -27.245452 7.188172 6.465839 -6.623501 -5.877546 22.605231 4.731930 4.010330 60.860042 1.458316 9.667722 -21.502866 29.561742 -4.908590 0.478847 3.883078 -5.912556 
2.068517 0.230911 0.975983 -76.615629 3.639490 86.119894 3.581288 0.482042 9.500472 -4.134908 -13.441504 8.756543 3.429979 8.665864 -23.765220 0.000000 -0.000000 0.000000 -2.441049 -2.358617 -13.940689 2.829527 -3.971490 3.902337 6.867666 -4.743355 9.271102 0.000000 -0.000000 0.000000 -0.856547 1.050178 7.088818 1.548213 -2.598501 7.084563 1.389559 -1.861336 -0.013140 1.772475 -6.737621 -2.747877 7.063659 -6.619658 -12.169200 -24.252485 -6.698863 7.667132 -58.764686 -9.628528 11.586191 11.226655 -27.707313 7.467393 6.253103 -6.618197 -5.654032 22.469264 4.866498 4.104619 61.404977 1.421577 9.734112 -21.374633 28.569401 -4.835488 0.654546 3.750537 -6.084615 
2.067580 0.230667 0.975922 -77.111269 3.602728 86.167550 3.582020 0.613404 9.809799 -4.174329 -13.076559 8.236446 3.395793 8.634031 -23.381047 0.000000 -0.000000 0.000000 -2.381611 -2.190980 -14.016017 2.837669 -3.965418 3.825038 6.813160 -4.545571 9.583831 0.000000 -0.000000 0.000000 -0.850128 0.891792 7.111790 1.574865 -2.749051 7.213837 1.373839 -1.914907 -0.208544 1.662393 -6.427060 -2.692548 7.166857 -6.356044 -12.256034 -24.159888 -7.211885 7.837792 -58.737314 -10.094878 11.796678 11.278859 -28.134410 7.305459 6.315559 -6.904764 -5.735671 22.452790 5.102980 4.371917 61.750013 1.329868 9.739722 -21.183084 27.636468 -4.866532 0.522849 3.837136 -6.413846 
2.066595 0.230408 0.975883 -77.606361 3.621303 86.284514 3.618341 0.811410 9.948869 -4.183003 -12.989594 7.907931 3.354733 8.727622 -23.283926 0.000000 -0.000000 0.000000 -2.272142 -1.988775 -14.174934 2.847691 -3.805366 3.845611 6.783506 -4.400394 9.635917 0.000000 -0.000000 0.000000 -0.804678 0.774712 7.017079 1.624065 -2.793457 7.291880 1.394957 -1.900654 -0.312558 1.555304 -5.912220 -2.570809 7.221201 -5.995946 -12.220596 -24.226560 -7.751585 7.899568 -58.639161 -10.436628 12.016537 11.448924 -28.390017 7.101276 6.324547 -6.872448 -5.779387 22.542238 5.153066 4.543333 61.952718 1.007057 9.716723 -21.193472 27.175282 -4.842581 0.638874 3.761262 -6.698920 
2.065842 0.230425 0.975873 -78.092431 3.644472 86.367905 3.722301 1.018622 10.143285 -4.253163 -12.860720 7.518329 3.335167 8.721662 -23.110653 0.000000 -0.000000 0.000000 -2.147887 -1.873984 -14.282848 2.862135 -3.676499 3.791562 6.847789 -4.204472 9.797496 0.000000 -0.000000 0.000000 -0.807582 0.706497 7.039840 1.726428 -2.811663 7.336012 1.507886 -1.894742 -0.355929 1.374942 -5.517716 -2.626761 7.141858 -5.697762 -12.290598 -24.153887 -8.041228 7.802128 -58.644047 -10.876635 12.094677 11.321950 -28.501862 7.016648 6.392935 -6.868305 -5.742834 22.550465 5.066703 4.627785 62.061049 0.742531 9.683205 -21.098594 26.984954 -4.809790 0.629138 3.795098 -6.877113 
2.065734 0.230450 0.975727 -78.383947 3.634638 86.444135 3.642759 1.143244 10.046600 -4.184824 -12.731551 7.600685 3.384499 8.791474 -23.100101 0.000000 -0.000000 0.000000 -2.100124 -1.836463 -14.491310 2.888011 -3.568961 3.909332 6.890287 -4.164985 9.847761 0.000000 -0.000000 0.000000 -0.754168 0.626376 7.211891 1.765613 -2.886308 7.197309 1.565036 -1.965545 -0.321095 1.196048 -5.131509 -2.744235 7.027899 -5.305385 -12.356834 -24.055345 -8.331665 7.756922 -58.607346 -11.272796 12.061726 11.224722 -28.500384 6.879946 6.630448 -6.753116 -5.681983 22.509787 4.998420 4.659329 62.228791 0.536555 9.670501 -21.062315 26.858694 -4.807939 0.643012 3.735915 -6.922006 
2.065541 0.230637 0.975620 -78.462501 3.622295 86.463790 3.626972 1.315720 9.928595 -4.138565 -12.684018 7.840947 3.368991 8.714731 -23.207652 0.000000 -0.000000 0.000000 -2.067636 -1.877298 -14.535940 2.911721 -3.382135 3.950143 6.852033 -4.166191 9.797201 0.000000 -0.000000 0.000000 -0.660856 0.486894 7.361159 1.799664 -3.068969 7.146196 1.526010 -2.087376 -0.272063 1.151893 -4.815029 -2.869667 6.878125 -4.997643 -12.275535 -24.008195 -8.571015 7.757254 -58.422763 -11.584426 12.023650 11.197561 -28.354524 7.122443 6.511412 -6.824224 -5.859679 22.547948 5.021589 4.663136 62.320990 0.440517 9.713768 -20.959833 26.645624 -4.757788 0.691644 3.944993 -7.011022 
